
<svg viewBox="0 0 496 496"  xmlns="http://www.w3.org/2000/svg" xmlns:xlink="http://www.w3.org/1999/xlink"><linearGradient id="linear0" gradientUnits="userSpaceOnUse" x1="248" x2="248" y1="496" y2="0"><stop offset="0" stop-color="#9f2fff"/><stop offset="1" stop-color="#0bb1d3"/></linearGradient><path d="m440 40h-80c-2.472656 0-4.929688.175781-7.359375.496094-11.710937-23.9375-36.25-40.496094-64.640625-40.496094h-40v24c0 30.878906 25.121094 56 56 56h2.414062c-1.542968 5.167969-2.414062 10.550781-2.414062 16v92.558594c0 20.632812-15.488281 37.746094-36.015625 39.800781l-153.550781 15.351563c-21.953125 2.199218-39.746094 16.703124-46.953125 36.289062h-11.480469c-22.054688 0-40 17.945312-40 40v49.472656c-9.296875 3.320313-16 12.113282-16 22.527344 0 13.230469 10.769531 24 24 24s24-10.769531 24-24c0-10.414062-6.703125-19.207031-16-22.527344v-49.472656c0-13.230469 10.769531-24 24-24h8.160156c-.0625 1.144531-.160156 2.28125-.160156 3.441406v172.558594c0 13.230469 10.769531 24 24 24s24-10.769531 24-24v-64c0-4.40625 3.59375-8 8-8v72c0 13.230469 10.769531 24 24 24s24-10.769531 24-24v-72h112v72c0 13.230469 10.769531 24 24 24s24-10.769531 24-24v-68.6875c0-4.625 1.703125-9.160156 4.710938-12.648438 1.121093-.503906 2.191406-1.070312 3.289062-1.609374v82.945312c0 13.230469 10.769531 24 24 24s24-10.769531 24-24v-152l-.167969-3.023438c.105469-1.648437.167969-3.304687.167969-4.976562v-160h56c30.878906 0 56-25.121094 56-56s-25.121094-56-56-56zm-416 360c-4.40625 0-8-3.59375-8-8s3.59375-8 8-8 8 3.59375 8 8-3.59375 8-8 8zm240-376v-8h24c28.160156 0 51.535156 20.894531 55.433594 48h-39.433594c-22.054688 0-40-17.945312-40-40zm-48.167969 225.65625c-.863281 12.457031-11.167969 22.34375-23.832031 22.34375-11.183594 0-20.519531-7.710938-23.199219-17.640625zm-63.832031 222.34375c0 4.40625-3.59375 8-8 8s-8-3.59375-8-8v-72h16zm57.472656-88c3.3125-9.296875 12.113282-16 22.527344-16s19.207031 6.703125 22.527344 16zm158.527344 88c0 4.40625-3.59375 8-8 8s-8-3.59375-8-8v-93.105469c6.144531-4.894531 11.503906-10.535156 16-16.773437zm0-161.527344c-9.28125-3.328125-16-12.136718-16-22.472656 0-10.414062 6.703125-19.207031 16-22.527344zm88.886719-178.34375c-10.328125-5.542968-16.886719-16.226562-16.886719-28.128906h-16c0 12.097656 4.496094 23.382812 12.199219 32h-76.199219c-7.039062 0-13.953125-1.847656-19.992188-5.34375l-8.015624 13.839844c8.472656 4.910156 18.160156 7.503906 28.007812 7.503906h8v96.808594c-18.230469 3.71875-32 19.871094-32 39.191406 0 18.574219 12.976562 34.273438 30.3125 38.65625-4.640625 22.152344-19.535156 40.65625-41.449219 49.984375l-1.429687.605469-1.097656 1.097656c-6.664063 6.664062-10.335938 15.535156-10.335938 24.96875v68.6875c0 4.40625-3.59375 8-8 8s-8-3.59375-8-8v-88h-24.808594c-3.71875-18.230469-19.871094-32-39.191406-32s-35.472656 13.769531-39.191406 32h-72.808594c-13.230469 0-24 10.769531-24 24v64c0 4.40625-3.59375 8-8 8s-8-3.59375-8-8v-172.558594c0-20.632812 15.480469-37.746094 36.015625-39.800781l36.785156-3.679687c3.703125 18.246093 19.871094 32.039062 39.199219 32.039062 22.039062 0 39.976562-17.921875 39.992188-39.960938l37.574218-3.757812c28.753906-2.875 50.433594-26.832031 50.433594-55.722656v-92.558594c0-5.535156 1.183594-10.984375 3.375-16h36.625v-8c0-5.464844-.664062-10.769531-1.824219-15.878906.609375-.03125 1.207031-.121094 1.824219-.121094h80c22.054688 0 40 17.945312 40 40 0 16-9.511719 29.734375-23.113281 36.128906zm-40.886719-52.128906c0 4.414062-3.585938 8-8 8s-8-3.585938-8-8 3.585938-8 8-8 8 3.585938 8 8zm-296 240c-13.230469 0-24 10.769531-24 24s10.769531 24 24 24 24-10.769531 24-24-10.769531-24-24-24zm0 32c-4.40625 0-8-3.59375-8-8s3.59375-8 8-8 8 3.59375 8 8-3.59375 8-8 8zm160-80c-13.230469 0-24 10.769531-24 24s10.769531 24 24 24 24-10.769531 24-24-10.769531-24-24-24zm0 32c-4.40625 0-8-3.59375-8-8s3.59375-8 8-8 8 3.59375 8 8-3.59375 8-8 8zm0 0" fill="url(#linear0)"/></svg>