
<svg id="Layer_5" enable-background="new 0 0 64 64" height="512" viewBox="0 0 64 64" width="512" xmlns="http://www.w3.org/2000/svg" xmlns:xlink="http://www.w3.org/1999/xlink"><linearGradient id="SVGID_1_" gradientUnits="userSpaceOnUse" x1="32" x2="32" y1="63" y2="1"><stop offset="0" stop-color="#9f2fff"/><stop offset="1" stop-color="#0bb1d3"/></linearGradient><path d="m59 43.101v-1.101c0-11.777-7.582-21.81-18.118-25.492 1.254-.676 2.118-1.986 2.118-3.508 0-1.861-1.277-3.43-3.002-3.874.001-.042.002-.084.002-.126 0-1.889-1.316-3.477-3.08-3.893-.422-2.333-2.468-4.107-4.92-4.107s-4.498 1.774-4.92 4.107c-1.764.416-3.08 2.004-3.08 3.893 0 .042.001.084.002.126-1.725.444-3.002 2.013-3.002 3.874 0 1.522.864 2.832 2.118 3.508-10.536 3.682-18.118 13.715-18.118 25.492v1.101c-2.279.465-4 2.485-4 4.899v10c0 2.757 2.243 5 5 5h52c2.757 0 5-2.243 5-5v-10c0-2.414-1.721-4.434-4-4.899zm-2-1.101v1h-12.018c-.282-14.291-6.509-22.374-10.046-25.822 12.406 1.459 22.064 12.031 22.064 24.822zm-24.998-24.745c2.259 1.818 10.641 9.651 10.979 25.745h-21.962c.34-16.046 8.727-23.919 10.983-25.745zm-7.002-2.255c-1.103 0-2-.897-2-2s.896-2 1.971-2h.001l1.68.11-.522-1.434c-.088-.238-.13-.459-.13-.676 0-1.103.897-2 2-2h1v-1c0-1.654 1.346-3 3-3s3 1.346 3 3v1h1c1.103 0 2 .897 2 2 0 .217-.042.438-.129.677l-.522 1.434 1.523-.094.128-.017c1.103 0 2 .897 2 2s-.897 2-2 2zm4.064 2.178c-3.537 3.448-9.764 11.531-10.046 25.822h-12.018v-1c0-12.791 9.658-23.363 22.064-24.822zm-23.064 27.822h52c1.654 0 3 1.346 3 3v5h-14v-2c0-1.103-.897-2-2-2h-14c-1.103 0-2 .897-2 2v2h-26v-5c0-1.654 1.346-3 3-3zm7 10v6h-4v-6zm2 0h4v6h-4zm6 0h4v6h-4zm6 0h2c0 1.103.897 2 2 2v4h-4zm4 0v-4h14l.002 4zm2 2h4v4h-4zm6 0h4v4h-4zm6 0c1.103 0 2-.897 2-2h2v6h-4zm6-2h4v6h-4zm-48 3v-3h4v6h-1c-1.654 0-3-1.346-3-3zm55 3h-1v-6h4v3c0 1.654-1.346 3-3 3zm-45.91-25.681-1.896-.639c1.55-4.603 4.602-8.687 8.595-11.499l1.152 1.636c-3.649 2.569-6.437 6.299-7.851 10.502zm9.412-11.501-1.004-1.73c.676-.392 1.379-.753 2.092-1.073l.82 1.823c-.649.292-1.292.622-1.908.98zm30.951 13.409c-.729-3.127-2.204-6.097-4.266-8.589l1.541-1.274c2.258 2.729 3.873 5.983 4.672 9.411zm.353 1.91 1.98-.273c.095.686.159 1.389.19 2.092l-1.998.09c-.028-.643-.086-1.284-.172-1.909z" fill="url(#SVGID_1_)"/></svg>