
<svg id="Layer_5" enable-background="new 0 0 64 64"  viewBox="0 0 64 64"  xmlns="http://www.w3.org/2000/svg" xmlns:xlink="http://www.w3.org/1999/xlink"><linearGradient id="SVGID_1_" gradientUnits="userSpaceOnUse" x1="32" x2="32" y1="63" y2="1"><stop offset="0" stop-color="#9f2fff"/><stop offset="1" stop-color="#0bb1d3"/></linearGradient><path d="m58.998 17.054c0-.018.002-.036.002-.054 0-8.822-7.178-16-16-16h-26c-8.822 0-16 7.178-16 16s7.178 16 16 16h9.556c-.344.591-.556 1.268-.556 2 0 1.103-.897 2-2 2h-19c-2.206 0-4 1.794-4 4s1.794 4 4 4h20.962c-.602.555-.962 1.221-.962 2 0 .916.497 1.676 1.304 2.282l-.975.975c-.989-.599-2.487-1.257-4.329-1.257-2.302 0-4.076 1.023-5 1.704-.924-.681-2.698-1.704-5-1.704-2.768 0-4.745 2.068-5.497 3h-4.503v2h4.503c.752.932 2.73 3 5.497 3 2.302 0 4.076-1.023 5-1.704.62.457 1.63 1.061 2.919 1.414-.585.691-.919 1.547-.919 2.461 0 2.112 1.717 3.829 3.829 3.829h3.315c.758 0 1.493-.222 2.124-.643l1.708-1.138c.641-.428 1.024-1.145 1.024-1.916 0-1.27-1.033-2.303-2.303-2.303h-.283l6.009-6.009c3.833-.094 7.577-1.458 7.577-3.991 0-.539-.204-1.44-1.31-2.276l2.776-2.776c.176.027.353.052.534.052.912 0 1.77-.355 2.414-1l16.257-16.257c.857-.857 1.329-1.996 1.329-3.207 0-2.319-1.755-4.214-4.002-4.482zm-43.705 36.239c-.017.017-1.737 1.707-4.293 1.707-1.696 0-3.058-1.249-3.724-2 .667-.752 2.028-2 3.724-2 2.526 0 4.278 1.693 4.293 1.707l.293.293zm7.411-24.583 5.497 2.29h-7.787zm10.696 2.29-9.166-3.819 1.294-1.294 12.272 5.113zm9.308-.122-15.651-6.521 1.295-1.295 15.651 6.521zm-12.828-9.344 17.736-17.736c.762.267 1.497.59 2.192.979l-17.689 17.69zm8.471 3.529 16.097-16.097c.444.631.831 1.302 1.168 2.004l-15.026 15.026zm7.18 2.992-2.945-1.227 13.825-13.825c.379 1.268.589 2.608.589 3.997 0 .089-.007.175-.009.263-.643.221-1.239.57-1.734 1.065zm7.643-20.643-16.819 16.819-2.239-.933 17.391-17.391c.596.458 1.152.96 1.667 1.505zm-49.658 13.303 8.721 3.634-1.589 1.589-6.085-2.536c-.438-.849-.788-1.748-1.047-2.687zm26.149-13.794-.523-3.921h4.444zm-1.78 1.78-1.749 1.749-.994-7.45h1.982zm-3.53 3.53-1.749 1.749-1.464-10.98h1.982zm-3.529 3.529-1.412 1.412-.404-.168-1.868-14.004h1.982zm-3.953.354-2.099-.875-1.56-11.704c.627-.177 1.271-.309 1.929-.397zm-4.235-1.765-2.099-.875-1.099-8.239c.588-.379 1.205-.715 1.848-1.004zm5.246 4.353-1.294 1.294-13.344-5.56c.105-.566.238-1.123.41-1.663zm-2.823 2.823-1.295 1.295-10.697-4.458c-.044-.448-.069-.902-.069-1.362 0-.165.019-.326.025-.49zm21.353-18.525h3.172l-27.202 27.202c-.762-.267-1.497-.59-2.192-.979zm-28.803 3.646.792 5.939-3.994-1.665c.788-1.625 1.878-3.073 3.202-4.274zm-.898 19.818 2.407 1.003-.627.627c-.64-.493-1.234-1.038-1.78-1.63zm7.917 4.32 27.784-27.784h.586c.809 0 1.598.084 2.37.216l-27.784 27.784h-.586c-.809 0-1.598-.084-2.37-.216zm-11.63 10.216c0-1.103.897-2 2-2h19c2.206 0 4-1.794 4-4 0-1.103.897-2 2-2h2 8.586l-1.586 1.586c-.645.645-1 1.502-1 2.414 0 .181.025.358.052.534l-5.466 5.466h-27.586c-1.103 0-2-.897-2-2zm29.603 7.983c-1.078-.028-2.022-.16-2.815-.357l9.212-9.212 1.586 1.586zm-5.603-1.983c0-.516 1.228-1.342 3.337-1.751l-2.585 2.585c-.477-.297-.752-.598-.752-.834zm-10.586 6 .293-.293c.017-.017 1.737-1.707 4.293-1.707 1.146 0 2.126.345 2.861.725l-3.245 3.245c-2.313-.16-3.896-1.663-3.91-1.676zm11.283 6c.167 0 .303.136.303.303 0 .102-.05.196-.135.252l-1.708 1.138c-.301.201-.652.307-1.013.307h-3.315c-1.009 0-1.829-.82-1.829-1.829 0-.488.19-.947.536-1.293l7.633-7.633c.778.276 1.652.478 2.569.603l-8.152 8.152zm11.303-12c0 .516-1.228 1.342-3.338 1.751l2.589-2.589c.504.32.749.635.749.838zm21.257-23.671-16.257 16.257c-.526.526-1.474.526-2 0l-1.586-1.586c-.263-.263-.414-.628-.414-1s.151-.737.414-1l16.257-16.257c.479-.479 1.116-.743 1.793-.743 1.398 0 2.536 1.138 2.536 2.536 0 .677-.264 1.314-.743 1.793z" fill="url(#SVGID_1_)"/></svg>