
<svg id="_x33_0" enable-background="new 0 0 64 64" viewBox="0 0 64 64"  xmlns="http://www.w3.org/2000/svg" xmlns:xlink="http://www.w3.org/1999/xlink"><linearGradient id="SVGID_1_" gradientUnits="userSpaceOnUse" x1="32" x2="32" y1="63" y2="1"><stop offset="0" stop-color="#9f2fff"/><stop offset="1" stop-color="#0bb1d3"/></linearGradient><path d="m60.475 3.061c-1.329-1.329-3.096-2.061-4.975-2.061s-3.646.732-4.975 2.061l-19.646 19.646c-.567.566-.879 1.32-.879 2.122v3.343c0 .136.021.268.039.4l-18.094 19.998c-.064-.073-.114-.154-.184-.223l-.108-.108c-.799-.799-1.861-1.239-2.991-1.239-1.363 0-2.649.662-3.442 1.771l-3.132 4.385c-.712.996-1.088 2.17-1.088 3.395v.61c0 3.219 2.62 5.839 5.839 5.839 1.65 0 3.241-.692 4.365-1.9l25.232-27.1h2.736c.801 0 1.555-.312 2.122-.879l19.646-19.646c1.328-1.329 2.06-3.096 2.06-4.975s-.732-3.646-2.061-4.975zm-12.061 4.939 1.586-1.586 7.586 7.586-1.586 1.586zm6.172 9-1.586 1.586-7.586-7.586 1.586-1.586zm-44.846 42.737c-.747.803-1.804 1.263-2.901 1.263-2.117 0-3.839-1.722-3.839-3.839v-.61c0-.805.247-1.577.715-2.231l3.132-4.385c.418-.586 1.097-.935 1.815-.935.587 0 1.162.238 1.577.653l.108.108c.415.415.653.99.653 1.577v.324c0 .587-.238 1.162-.653 1.577l-2.054 2.054 1.414 1.414 2.054-2.054c.799-.799 1.239-1.861 1.239-2.991v-.324c0-.291-.031-.576-.088-.855l18.124-20.033 2.671 2.671c.143.143.297.269.461.378zm30.139-28.03c-.189.189-.441.293-.708.293h-3.343c-.267 0-.519-.104-.708-.293l-2.828-2.828c-.188-.189-.292-.441-.292-.708v-3.343c0-.267.104-.519.293-.708l11.707-11.706 7.586 7.586zm19.646-19.646-.525.525-7.586-7.586.525-.525c.952-.951 2.216-1.475 3.561-1.475s2.609.524 3.561 1.475l.465.465c.95.951 1.474 2.215 1.474 3.56s-.524 2.609-1.475 3.561z" fill="url(#SVGID_1_)"/></svg>