
<svg height="496pt" viewBox="0 0 496 496" width="496pt" xmlns="http://www.w3.org/2000/svg" xmlns:xlink="http://www.w3.org/1999/xlink"><linearGradient id="a" gradientTransform="matrix(8 0 0 -8 -8 504)" gradientUnits="userSpaceOnUse" x1="32" x2="32" y1="1" y2="63"><stop offset="0" stop-color="#9f2fff"/><stop offset="1" stop-color="#0bb1d3"/></linearGradient><path d="m226.128906 496 61.871094-35.359375v-97.496094l104-112v-75.144531h-112v-48h-16v128h17.863281l-33.863281 56.457031-33.863281-56.457031h17.863281v-128h-16v48h-112v75.144531l104 112v132.855469zm-106.128906-251.144531v-20.855469h80v-16h-80v-16h96v48h-30.136719l62.136719 103.542969 62.136719-103.542969h-30.136719v-48h96v16h-80v16h80v20.855469l-104 112v94.503906l-48 27.433594v-121.9375zm347.296875-42.390625 28.703125 7.320312v76.429688l-28.703125 7.320312c-5.710937 27.722656-16.464844 53.6875-32.023437 77.335938l15.117187 25.464844-54.054687 54.054687-25.464844-15.125c-19.847656 13.039063-41.625 22.78125-64.808594 28.980469l-4.132812-15.445313c23.085937-6.175781 44.65625-16.128906 64.125-29.578125l4.21875-2.910156 23.542968 13.976562 36.464844-36.464843-13.976562-23.542969 2.917968-4.21875c16.800782-24.308594 28.007813-51.382812 33.320313-80.453125l.921875-5.050781 26.535156-6.773438v-51.570312l-26.527344-6.765625-.921875-5.050781c-5.3125-29.070313-16.519531-56.140626-33.320312-80.453126l-2.917969-4.21875 13.976562-23.542968-36.472656-36.464844-23.535156 13.96875-4.21875-2.910156c-24.320312-16.800782-51.390625-28.007813-80.453125-33.320313l-5.050781-.921875-6.773438-26.535156h-51.5625l-6.773437 26.535156-5.050781.921875c-29.0625 5.304688-56.132813 16.511719-80.453126 33.320313l-4.21875 2.910156-23.535156-13.96875-36.472656 36.464844 13.976562 23.542968-2.917968 4.21875c-16.800782 24.3125-28.007813 51.375-33.320313 80.453126l-.921875 5.050781-26.535156 6.765625v51.570312l26.527344 6.773438.921875 5.050781c5.3125 29.070313 16.519531 56.144531 33.320312 80.453125l2.917969 4.21875-13.976562 23.542969 36.464843 36.464843 23.542969-13.976562 4.21875 2.910156c19.46875 13.457032 41.039062 23.402344 64.125 29.578125l-4.140625 15.457031c-23.179687-6.203124-44.953125-15.945312-64.808594-28.984374l-25.464843 15.125-54.054688-54.054688 15.117188-25.464844c-15.558594-23.648437-26.3125-49.613281-32.023438-77.335937l-28.6875-7.328125v-76.429688l28.703125-7.328125c5.710937-27.722656 16.472656-53.6875 32.023437-77.335937l-15.117187-25.464844 54.046875-54.039062 25.472656 15.109374c23.65625-15.558593 49.625-26.320312 77.335938-32.023437l7.320312-28.703125h76.4375l7.320313 28.695312c27.714843 5.710938 53.679687 16.464844 77.335937 32.023438l25.472656-15.109375 54.046876 54.039063-15.117188 25.464843c15.550781 23.65625 26.304688 49.621094 32.015625 77.351563zm-160.863281 228.445312-4.859375-15.230468c73.226562-23.382813 122.425781-90.777344 122.425781-167.679688 0-97.046875-78.953125-176-176-176s-176 78.953125-176 176c0 76.902344 49.199219 144.296875 122.433594 167.679688l-4.859375 15.230468c-79.894531-25.503906-133.574219-99.015625-133.574219-182.910156 0-105.871094 86.136719-192 192-192s192 86.128906 192 192c0 83.894531-53.679688 157.40625-133.566406 182.910156zm0 0" fill="url(#a)"/></svg>