
<svg id="_x33_0" enable-background="new 0 0 64 64" height="512" viewBox="0 0 64 64" width="512" xmlns="http://www.w3.org/2000/svg" xmlns:xlink="http://www.w3.org/1999/xlink"><linearGradient id="SVGID_1_" gradientUnits="userSpaceOnUse" x1="32" x2="32" y1="63" y2="1"><stop offset="0" stop-color="#9f2fff"/><stop offset="1" stop-color="#0bb1d3"/></linearGradient><path d="m33 29c0 .552-.448 1-1 1s-1-.448-1-1 .448-1 1-1 1 .448 1 1zm-7.123.218c-.127 0-.257.025-.382.076-.51.211-.753.796-.541 1.307.16.385.532.618.924.618.128 0 .257-.025.382-.076.51-.211.753-.796.541-1.307-.16-.386-.532-.618-.924-.618zm-5.191 3.468c-.256 0-.512.098-.707.293-.391.391-.391 1.024 0 1.414.195.195.451.293.707.293s.512-.098.707-.293c.391-.391.391-1.024 0-1.414-.195-.195-.451-.293-.707-.293zm-3.085 5.267c-.125-.052-.255-.076-.382-.076-.392 0-.765.233-.924.618-.211.51.031 1.095.541 1.307.125.052.255.076.382.076.392 0 .765-.233.924-.618.211-.51-.031-1.095-.541-1.307zm29.181-.076c-.128 0-.257.025-.382.076-.51.211-.753.796-.541 1.307.159.385.532.618.924.618.128 0 .257-.025.382-.076.51-.211.753-.796.541-1.307-.16-.386-.532-.618-.924-.618zm-3.468-5.191c-.256 0-.512.098-.707.293-.391.391-.391 1.024 0 1.414.195.195.451.293.707.293s.512-.098.707-.293c.391-.391.391-1.024 0-1.414-.195-.195-.451-.293-.707-.293zm-4.808-3.392c-.125-.052-.255-.076-.382-.076-.392 0-.765.232-.924.618-.211.51.031 1.095.541 1.307.125.052.255.076.382.076.392 0 .765-.233.924-.618.211-.511-.031-1.096-.541-1.307zm13.494-.294c0 2.348-.432 4.653-1.246 6.868.255.335.481.695.647 1.096.84 2.026.247 4.353-1.401 5.737v10.56c1.221 1.01 2 2.535 2 4.239 0 3.032-2.468 5.5-5.5 5.5s-5.5-2.468-5.5-5.5c0-1.704.779-3.229 2-4.239v-8.261c0-6.065-4.935-11-11-11s-11 4.935-11 11v8.261c1.221 1.01 2 2.535 2 4.239 0 3.032-2.468 5.5-5.5 5.5s-5.5-2.468-5.5-5.5c0-1.704.779-3.229 2-4.239v-10.56c-1.648-1.385-2.241-3.712-1.401-5.737.166-.401.392-.761.647-1.096-.814-2.215-1.246-4.52-1.246-6.868 0-8.047 4.787-14.982 11.655-18.152-.404-.511-.655-1.148-.655-1.848 0-.895.398-1.726 1.062-2.289-.041-.232-.062-.469-.062-.711 0-2.206 1.794-4 4-4 .397 0 .792.059 1.168.172.746-.744 1.757-1.172 2.832-1.172s2.086.428 2.832 1.172c.376-.113.771-.172 1.168-.172 2.206 0 4 1.794 4 4 0 .242-.021.479-.063.711.665.563 1.063 1.394 1.063 2.289 0 .7-.251 1.337-.655 1.848 6.868 3.17 11.655 10.105 11.655 18.152zm-13.119-16.627c2.049 2.974 4.804 8.425 5.078 16.363 1.079.134 2.095.618 2.891 1.414 1.058 1.058 1.565 2.511 1.431 3.972.295.091.571.223.84.364.573-1.78.879-3.618.879-5.486 0-7.488-4.599-13.918-11.119-16.627zm-16.72 14.513c.488-.549 1.097-.995 1.803-1.287 1.385-.572 2.92-.484 4.216.197.724-.871 1.717-1.464 2.82-1.69v-13.055c-.855.047-1.698.136-2.517.299-.98 1.044-5.454 6.298-6.322 15.536zm10.839-2.78c1.104.227 2.096.819 2.82 1.69 1.297-.683 2.833-.77 4.216-.197.707.293 1.316.739 1.805 1.289-.865-9.276-5.342-14.501-6.323-15.537-.819-.163-1.663-.252-2.518-.3zm-7.137-14.134c1.936-.625 3.996-.972 6.137-.972s4.201.347 6.137.972c.484-.069.863-.469.863-.972 0-.402-.245-.768-.625-.931l-.919-.395.395-.919c.099-.23.149-.484.149-.755 0-1.103-.897-2-2-2-.352 0-.682.085-.981.253l-.816.456-.51-.784c-.378-.579-1.01-.925-1.693-.925s-1.315.346-1.692.925l-.51.784-.816-.456c-.3-.168-.63-.253-.982-.253-1.103 0-2 .897-2 2 0 .271.05.525.149.756l.395.919-.919.395c-.38.162-.625.528-.625.93 0 .503.379.903.863.972zm-11.863 19.028c0 1.868.306 3.706.88 5.486.269-.142.545-.273.84-.364-.135-1.461.373-2.913 1.431-3.972.795-.794 1.813-1.28 2.891-1.414.275-7.938 3.029-13.389 5.078-16.363-6.521 2.709-11.12 9.139-11.12 16.627zm7 28.5c0-1.93-1.57-3.5-3.5-3.5s-3.5 1.57-3.5 3.5 1.57 3.5 3.5 3.5 3.5-1.57 3.5-3.5zm29 0c0-1.93-1.57-3.5-3.5-3.5s-3.5 1.57-3.5 3.5 1.57 3.5 3.5 3.5 3.5-1.57 3.5-3.5zm-2-5.287v-10.546l.446-.297c1.188-.79 1.654-2.321 1.107-3.641-.428-1.033-1.397-1.732-2.53-1.825l-1.254-.104.384-1.198c.347-1.084.071-2.248-.718-3.038-.79-.788-1.95-1.062-3.038-.718l-1.198.384-.104-1.254c-.093-1.133-.792-2.103-1.825-2.53-1.033-.429-2.213-.236-3.08.499l-.961.814-.575-1.12c-.519-1.011-1.536-1.639-2.654-1.639s-2.135.628-2.654 1.64l-.575 1.12-.961-.814c-.867-.734-2.047-.927-3.08-.499s-1.732 1.397-1.825 2.53l-.104 1.254-1.198-.384c-1.082-.345-2.248-.071-3.038.718-.789.79-1.064 1.954-.718 3.038l.384 1.198-1.254.104c-1.133.093-2.103.792-2.53 1.825-.547 1.319-.081 2.851 1.107 3.641l.446.296v10.546c.478-.135.979-.213 1.5-.213s1.022.078 1.5.213v-7.213c0-7.168 5.832-13 13-13s13 5.832 13 13v7.213c.478-.135.979-.213 1.5-.213s1.022.078 1.5.213z" fill="url(#SVGID_1_)"/></svg>