<svg height="496pt" viewBox="0 0 496 496" width="496pt" xmlns="http://www.w3.org/2000/svg" xmlns:xlink="http://www.w3.org/1999/xlink"><linearGradient id="a" gradientUnits="userSpaceOnUse" x1="248" x2="248" y1="496" y2="0"><stop offset="0" stop-color="#9f2fff"/><stop offset="1" stop-color="#0bb1d3"/></linearGradient><path d="m240 168c0-57.34375-46.65625-104-104-104s-104 46.65625-104 104 46.65625 104 104 104 104-46.65625 104-104zm-192 0c0-48.519531 39.480469-88 88-88s88 39.480469 88 88-39.480469 88-88 88-88-39.480469-88-88zm80 288c0-4.414062 3.585938-8 8-8s8 3.585938 8 8-3.585938 8-8 8-8-3.585938-8-8zm208-424c17.648438 0 32 14.351562 32 32h-16c0-8.824219-7.175781-16-16-16s-16 7.175781-16 16h-16c0-17.648438 14.351562-32 32-32zm0-16c-26.472656 0-48 21.527344-48 48h-16c0-35.289062 28.710938-64 64-64s64 28.710938 64 64h-16c0-26.472656-21.527344-48-48-48zm0 64c-28.703125 0-56.527344 7.6875-81.078125 22.167969-23.234375-41.792969-67.808594-70.167969-118.921875-70.167969-74.992188 0-136 61.007812-136 136 0 66.792969 48.433594 122.367188 112 133.753906v18.246094h-16v136c0 22.054688 17.945312 40 40 40s40-17.945312 40-40v-136h-16v-18.246094c8.902344-1.59375 17.496094-4.050781 25.710938-7.289062 22.722656 62.535156 83.210937 105.535156 150.289062 105.535156 88.222656 0 160-71.777344 160-160s-71.777344-160-160-160zm-59.152344 28.777344c3.089844 3.421875 5.871094 6.992187 8 10.816406 13.839844 24.917969 40.152344 40.40625 68.664063 40.40625 8.527343 0 16.816406 1.703125 24.648437 5.054688l31 13.289062c4.160156 1.785156 6.839844 5.847656 6.839844 10.375 0 6.21875-5.0625 11.28125-11.289062 11.28125h-18.503907c-14.351562 0-27.070312 8.609375-32.398437 21.9375-4.382813 10.964844-14.863282 18.0625-26.679688 18.0625-14.113281 0-26.03125-10.105469-28.351562-24.015625-2.320313-13.894531-14.226563-23.984375-28.3125-23.984375h-.710938c1.390625-7.808594 2.246094-15.800781 2.246094-24 0-18.160156-3.640625-35.472656-10.128906-51.328125 4.855468-2.929687 9.847656-5.574219 14.976562-7.894531zm-260.847656 59.222656c0-66.167969 53.832031-120 120-120s120 53.832031 120 120-53.832031 120-120 120-120-53.832031-120-120zm144 288c0 13.230469-10.769531 24-24 24s-24-10.769531-24-24v-120h48zm-16-136h-16v-16.40625c2.664062.160156 5.296875.40625 8 .40625s5.335938-.246094 8-.40625zm56.3125-32.214844c14.695312-7.921875 27.710938-18.527344 38.542969-31.074218l9.199219 13.808593c7.304687 10.945313 19.519531 17.480469 32.679687 17.480469 12.824219 0 23.265625 10.441406 23.265625 23.265625v41.46875c0 9.210937-2.726562 17.875-7.65625 25.480469-43.984375-12.808594-80.441406-46.261719-96.03125-90.429688zm112.398438 94.285156c4.722656-9.007812 7.289062-19.085937 7.289062-29.335937v-41.46875c0-21.648437-17.617188-39.265625-39.265625-39.265625-7.796875 0-15.03125-3.871094-19.359375-10.359375l-12.222656-18.328125c7.207031-10.792969 12.917968-22.65625 16.824218-35.3125h4.480469c6.230469 0 11.503907 4.464844 12.527344 10.609375 3.617187 21.664063 22.183594 37.390625 44.144531 37.390625 18.398438 0 34.703125-11.039062 41.542969-28.128906 2.878906-7.207032 9.769531-11.871094 17.535156-11.871094h18.503907c15.050781 0 27.289062-12.238281 27.289062-27.28125 0-10.925781-6.496094-20.773438-16.535156-25.078125l-31-13.289063c-9.832032-4.214843-20.242188-6.351562-30.953125-6.351562-22.703125 0-43.664063-12.328125-54.679688-32.167969-1.761719-3.160156-3.816406-6.207031-6.078125-9.152343 13.894532-4.382813 28.4375-6.679688 43.246094-6.679688 74.679688 0 136.230469 57.160156 143.289062 130.023438-12.335937-3.144532-25.3125-2.527344-37.554687 1.929687-7.398437 2.679687-15.140625 4.046875-23.015625 4.046875h-13.808594c-11.132812 0-21 6.679688-25.140625 17.023438l-6.402343 16.015624c-1.695313 4.226563-5.726563 6.960938-10.289063 6.960938-14.925781 0-27.078125 12.152344-27.078125 27.078125 0 20.65625 9.976562 40.242187 26.679688 52.402344l29.191406 21.230469c-17.183594 7.265624-36.0625 11.289062-55.871094 11.289062-7.886719 0-15.671875-.65625-23.289062-1.929688zm95.183593-17.496093-35.796875-26.039063c-12.585937-9.152344-20.097656-23.902344-20.097656-39.457031 0-6.109375 4.976562-11.078125 11.078125-11.078125 11.136719 0 21-6.679688 25.144531-17.023438l6.402344-16.015624c1.695312-4.226563 5.734375-6.960938 10.285156-6.960938h13.808594c9.738281 0 19.320312-1.6875 28.488281-5.023438 10.671875-3.878906 22.089844-3.871093 32.648438-.054687-1.054688 51.964844-29.726563 97.191406-71.960938 121.652344zm0 0" fill="url(#a)"/></svg>