
<svg id="Layer_35" enable-background="new 0 0 64 64"  viewBox="0 0 64 64"  xmlns="http://www.w3.org/2000/svg" xmlns:xlink="http://www.w3.org/1999/xlink"><linearGradient id="SVGID_1_" gradientUnits="userSpaceOnUse" x1="32" x2="32" y1="63" y2="1"><stop offset="0" stop-color="#9f2fff"/><stop offset="1" stop-color="#0bb1d3"/></linearGradient><path d="m32 1c-17.094 0-31 13.906-31 31s13.906 31 31 31 31-13.906 31-31-13.906-31-31-31zm0 60c-15.99 0-29-13.01-29-29s13.01-29 29-29 29 13.01 29 29-13.01 29-29 29zm-5-29c0 2.757 2.243 5 5 5s5-2.243 5-5-2.243-5-5-5c-.25 0-.491.038-.731.074l-8.882-8.074h-3.387v3.387l8.074 8.882c-.036.24-.074.481-.074.731zm8 0c0 1.654-1.346 3-3 3s-3-1.346-3-3 1.346-3 3-3 3 1.346 3 3zm-14-10.387v-.613h.613l7.566 6.878c-.51.35-.951.791-1.301 1.301zm11-16.613c-14.888 0-27 12.112-27 27s12.112 27 27 27 27-12.112 27-27-12.112-27-27-27zm0 52c-13.45 0-24.447-10.677-24.975-24h3.975v-2h-3.975c.106-2.673.629-5.241 1.513-7.636l3.677 1.524.766-1.848-3.67-1.521c1.104-2.38 2.569-4.56 4.329-6.465l2.803 2.803 1.414-1.414-2.803-2.803c1.905-1.76 4.084-3.225 6.465-4.329l1.521 3.67 1.848-.766-1.524-3.677c2.395-.884 4.963-1.407 7.636-1.513v3.975h2v-3.975c2.673.106 5.241.629 7.636 1.513l-1.524 3.677 1.848.766 1.521-3.67c2.38 1.104 4.56 2.569 6.465 4.329l-2.803 2.803 1.414 1.414 2.803-2.803c1.76 1.905 3.225 4.084 4.329 6.465l-3.67 1.521.766 1.848 3.677-1.524c.884 2.395 1.408 4.963 1.513 7.636h-3.975v2h3.975c-.528 13.323-11.525 24-24.975 24zm1.303-12h-1.303v-2h2v-2h-10v2h2v2.184c-.329.117-.628.29-.894.508l-4.399-4.399-1.414 1.414 4.761 4.761c-.031.173-.054.35-.054.532v2c0 2.757 2.243 5 5 5h7.4c1.975 0 3.768-1.165 4.569-2.969l3.031-6.819v-2.936l-7.96 4.549zm-3.303-2v2h-2v-2zm9.142 8.219c-.481 1.082-1.557 1.781-2.742 1.781h-7.4c-1.654 0-3-1.346-3-3v-2c0-.552.448-1 1-1h5.697l3.263 2.175 5.482-3.133zm10.858-14.219c-1.654 0-3 1.346-3 3s1.346 3 3 3 3-1.346 3-3-1.346-3-3-3zm0 4c-.552 0-1-.448-1-1s.448-1 1-1 1 .448 1 1-.448 1-1 1zm-36-4c-1.654 0-3 1.346-3 3s1.346 3 3 3 3-1.346 3-3-1.346-3-3-3zm0 4c-.552 0-1-.448-1-1s.448-1 1-1 1 .448 1 1-.448 1-1 1z" fill="url(#SVGID_1_)"/></svg>