
<svg  viewBox="0 0 496 496"  xmlns="http://www.w3.org/2000/svg" xmlns:xlink="http://www.w3.org/1999/xlink"><linearGradient id="a" gradientUnits="userSpaceOnUse" x1="248" x2="248" y1="496" y2="0"><stop offset="0" stop-color="#9f2fff"/><stop offset="1" stop-color="#0bb1d3"/></linearGradient><path d="m486.929688 51.847656-42.777344-42.777344-17.074219 10.25-4.832031-19.320312h-60.492188l-4.824218 19.328125-17.074219-10.25-15.136719 15.128906c-1.566406-.101562-3.125-.207031-4.71875-.207031-83.816406 0-152 68.183594-152 152 0 30.847656 9.296875 59.542969 25.152344 83.535156l-21.152344 21.152344-11.535156-11.535156-160.464844 135.128906v55.03125l36.6875 36.6875h55.03125l135.128906-160.464844-11.535156-11.535156 21.152344-21.152344c23.992187 15.855469 52.6875 25.152344 83.535156 25.152344 83.816406 0 152-68.183594 152-152 0-1.59375-.105469-3.152344-.207031-4.71875l15.136719-15.136719-10.25-17.074219 19.320312-4.824218v-60.492188l-19.328125-4.824218zm-443.617188 428.152344-27.3125-27.3125v-25.375l52.6875 52.6875zm44.183594-3.816406-67.671875-67.671875 113.664062-95.710938 49.726563 49.726563zm106.054687-125.945313-47.789062-47.789062 13.773437-11.601563 45.617188 45.617188zm10.449219-37.550781-20.6875-20.6875 19.40625-19.40625c6.21875 7.535156 13.152344 14.460938 20.6875 20.6875zm116-.6875c-74.992188 0-136-61.007812-136-136 0-71.054688 54.792969-129.464844 124.335938-135.40625l-11.265626 11.261719 3.546876 5.898437c-57.351563 9.300782-100.617188 58.933594-100.617188 118.246094 0 66.167969 53.832031 120 120 120 59.3125 0 108.945312-43.265625 118.246094-100.617188l5.898437 3.546876 11.261719-11.265626c-5.941406 69.542969-64.351562 124.335938-135.40625 124.335938zm19.847656-113.070312 17.074219-10.25 4.832031 19.320312h56.988282c-13.527344 41.9375-52.742188 72-98.734376 72-57.34375 0-104-46.65625-104-104 0-45.992188 30.0625-85.207031 72-98.734375v56.992187l19.328126 4.820313-10.246094 17.074219zm140.152344-112.683594v35.507812l-15.59375 3.894532-4.269531 1.648437-3.730469 9.101563 10.371094 17.28125-25.105469 25.105468-17.265625-10.371094-9.773438 4.019532-4.878906 19.566406h-35.507812l-4.886719-19.566406-9.773437-4.019532-17.265626 10.371094-25.105468-25.105468 10.371094-17.28125-4-9.75-19.585938-4.894532v-35.507812l19.566406-4.886719 4.019532-9.773437-10.371094-17.265626 25.105468-25.105468 17.265626 10.371094 9.773437-4.019532 4.886719-19.566406h35.507812l4.886719 19.566406 9.773437 4.019532 17.265626-10.371094 25.105468 25.105468-10.371094 17.265626 4.019532 9.773437zm-371.3125 265.753906-44.6875 44.6875v3.3125c0 17.648438 14.351562 32 32 32h3.3125l44.6875-44.6875v-3.3125c0-17.648438-14.351562-32-32-32zm-15.710938 63.710938c-6.402343-1.222657-11.457031-6.285157-12.679687-12.679688l11.710937-11.710938 12.679688 12.679688zm34.734376-34.734376-11.710938 11.710938-12.6875-12.6875 11.710938-11.710938c6.402343 1.222657 11.464843 6.285157 12.6875 12.6875zm264.289062-332.976562c-30.878906 0-56 25.121094-56 56s25.121094 56 56 56 56-25.121094 56-56-25.121094-56-56-56zm0 96c-22.054688 0-40-17.945312-40-40s17.945312-40 40-40 40 17.945312 40 40-17.945312 40-40 40zm-124.808594-38.398438 9.609375 12.796876c-5.464843 4.105468-10.3125 8.953124-14.410156 14.402343l-12.796875-9.609375c5.015625-6.664062 10.925781-12.582031 17.597656-17.589844zm-19.191406 70.398438c0 19.503906 7.664062 37.761719 21.601562 51.414062l-11.203124 11.425782c-17.023438-16.6875-26.398438-39.007813-26.398438-62.839844 0-12.230469 2.464844-24.078125 7.328125-35.199219l14.664063 6.40625c-3.976563 9.089844-5.992188 18.777344-5.992188 28.792969zm144-96c-13.230469 0-24 10.769531-24 24s10.769531 24 24 24 24-10.769531 24-24-10.769531-24-24-24zm0 32c-4.40625 0-8-3.59375-8-8s3.59375-8 8-8 8 3.59375 8 8-3.59375 8-8 8zm0 0" fill="url(#a)"/></svg>