<svg id="Layer_5" enable-background="new 0 0 64 64" height="512" viewBox="0 0 64 64" width="512" xmlns="http://www.w3.org/2000/svg" xmlns:xlink="http://www.w3.org/1999/xlink"><linearGradient id="SVGID_1_" gradientUnits="userSpaceOnUse" x1="32" x2="32" y1="63" y2="1"><stop offset="0" stop-color="#9f2fff"/><stop offset="1" stop-color="#0bb1d3"/></linearGradient><path d="m51.45 5.677-4.501-2.572c-.237-1.198-1.293-2.105-2.559-2.105h-1.39-1.618-9.382-9.382-1.618-1.39c-1.266 0-2.323.907-2.559 2.105l-4.501 2.572c-4.04 2.308-6.55 6.634-6.55 11.287v34.036h8.908l1.092-11.287v18.523l2.382 4.764h27.236l2.382-4.764v-18.523l1.092 11.287h8.908v-34.036c0-4.653-2.51-8.979-6.55-11.287zm-8.45-2.677h1.39c.336 0 .61.273.61.61 0 .102-.021.195-.065.28-.33.648-.684 1.3-1.05 1.95l-2.291-.949c.419-.747.77-1.407 1.02-1.891zm-18.602 5.187-1.715 1.714c-.534-.749-1.049-1.526-1.542-2.322l2.282-.945c.307.508.63 1.026.975 1.553zm1.156 1.673c.445.611.907 1.199 1.381 1.754l-.926 2.237c-.718-.699-1.422-1.488-2.106-2.34zm2.893 3.33c.851.776 1.712 1.355 2.553 1.625v2.074c-1.126-.225-2.27-.805-3.399-1.656zm4.553 1.625c.841-.271 1.702-.85 2.553-1.625l.846 2.044c-1.129.851-2.273 1.431-3.399 1.656zm4.991-.965-.926-2.237c.474-.555.936-1.143 1.381-1.754l1.651 1.651c-.684.853-1.388 1.642-2.106 2.34zm3.325-3.948-1.715-1.714c.345-.527.668-1.046.975-1.552l2.282.945c-.492.794-1.008 1.572-1.542 2.321zm-.968-6.902c-2.465 4.556-6.244 10-8.348 10-2.102 0-5.881-5.444-8.348-10h8.348zm-20.738 0h1.39.387c.25.485.602 1.144 1.02 1.891l-2.292.949c-.367-.65-.721-1.303-1.051-1.952-.043-.082-.064-.176-.064-.278 0-.337.274-.61.61-.61zm-6.068 4.413 3.93-2.246c2.174 4.19 7.321 12.77 13.41 13.739-.253 2.08-.896 3.699-1.622 5.502-1.059 2.633-2.26 5.616-2.26 10.592h2c0-4.589 1.076-7.261 2.116-9.845.517-1.284 1.013-2.535 1.369-3.945.44.707.937 1.416 1.449 2.139 1.507 2.129 3.066 4.33 3.066 6.651h2c0-2.958-1.825-5.534-3.435-7.807-.825-1.165-1.621-2.289-2.102-3.352 5.938-1.23 10.933-9.567 13.063-13.675l3.93 2.246c.412.235.802.498 1.175.78-3.675 7.3-5.631 15.44-5.631 23.613v25.195h-28v-25.195c0-8.172-1.956-16.312-5.632-23.611.372-.283.763-.546 1.174-.781zm11.458 51.587v2h-2v-2zm2 0h2v2h-2zm4 0h2v2h-2zm4 0h2v2h-2zm4 0h2v2h-2zm-31-10v-2h5.286l-.194 2zm5.479-4h-5.479v-28.036c0-2.749 1.053-5.347 2.841-7.339 2.304 4.713 3.861 9.774 4.615 14.961zm5.139 14h2.382v2h-1.382zm24.382 2v-2h2.382l-1 2zm7.908-12-.194-2h5.286v2zm5.092-4h-5.479l-1.976-20.415c.753-5.187 2.311-10.247 4.615-14.96 1.787 1.992 2.84 4.59 2.84 7.339zm-34 10h-2v-33h2zm4-2h-2v-16h2zm4 2h-2v-16h2zm6-4h-2v-22h2zm4 4h-2v-23h2zm4-2h-2v-25h2zm0-27h-2v-8h2z" fill="url(#SVGID_1_)"/></svg>