
<svg id="_x33_0" enable-background="new 0 0 64 64" height="512" viewBox="0 0 64 64" width="512" xmlns="http://www.w3.org/2000/svg" xmlns:xlink="http://www.w3.org/1999/xlink"><linearGradient id="SVGID_1_" gradientUnits="userSpaceOnUse" x1="32" x2="32" y1="63" y2="1"><stop offset="0" stop-color="#9f2fff"/><stop offset="1" stop-color="#0bb1d3"/></linearGradient><path d="m28.211 22.658-.105-.211 1.789-.895.105.212c.381.762 1.147 1.236 2 1.236s1.619-.474 2-1.236l.105-.211 1.789.895-.105.211c-.722 1.444-2.174 2.341-3.789 2.341s-3.067-.897-3.789-2.342zm-1.211 31.342c0-1.654 1.346-3 3-3h.121c.687 0 1.34.221 1.879.628.539-.407 1.192-.628 1.879-.628h.121c1.654 0 3 1.346 3 3 0 .94-.449 1.837-1.2 2.4l-3.8 2.85-3.8-2.851c-.751-.562-1.2-1.459-1.2-2.399zm2 0c0 .313.149.612.399.799l2.601 1.951 2.6-1.95c.25-.188.4-.486.4-.8 0-.552-.449-1-1-1h-.121c-.3 0-.581.116-.793.328l-1.086 1.086-1.086-1.086c-.212-.212-.493-.328-.793-.328h-.121c-.551 0-1 .448-1 1zm26-9.093v6.143c0 3.281-2.669 5.95-5.95 5.95-.228 0-.454-.016-.678-.042l.628.628c.645.646 1 1.503 1 2.414s-.355 1.769-1 2.414l-.586.586h-32.828l-.586-.586c-.645-.646-1-1.503-1-2.414s.355-1.769 1-2.414l.628-.628c-.224.026-.45.042-.678.042-3.281 0-5.95-2.669-5.95-5.95v-6.143c0-4.245 1.894-8.098 4.945-10.684-.611-.887-.945-1.934-.945-3.035 0-1.683.804-3.29 2.15-4.3l.639-.479c.758-.57 1.211-1.475 1.211-2.423 0-.447-.131-.88-.378-1.251l-.621-.931c-.655-.981-1.001-2.126-1.001-3.312 0-1.188.338-2.303.977-3.261l.352-.527c.439-.658.671-1.426.671-2.218v-.486c0-6.065 4.935-11 11-11h8c6.065 0 11 4.935 11 11v.486c0 .792.232 1.56.672 2.219l.351.525c.639.959.977 2.075.977 3.225 0 1.223-.346 2.368-1.001 3.349l-.621.932c-.247.37-.378.803-.378 1.25 0 .947.453 1.853 1.211 2.422l.639.479c1.346 1.01 2.15 2.617 2.15 4.3 0 1.101-.334 2.148-.945 3.036 3.051 2.586 4.945 6.439 4.945 10.684zm-39.435-11.854c1.492-.935 3.176-1.61 5.002-1.933l3.568-.63c1.227-.217 2.177-1.146 2.421-2.366l.169-.847c-2.252-1.638-3.725-4.285-3.725-7.277v-.026c-1.207-.914-2-2.348-2-3.974 0-1.688.846-3.177 2.132-4.083.393-1.768 1.708-3.197 3.478-3.703l1.34-.383c-.31-.439-.601-.895-.845-1.383l1.789-.895c1.14 2.281 3.213 3.943 5.687 4.563l3.623.905c2.661.109 4.796 2.292 4.796 4.979 0 1.627-.793 3.061-2 3.974v.026c0 2.992-1.473 5.639-3.725 7.277l.169.847c.244 1.221 1.194 2.149 2.421 2.366l3.568.63c1.827.322 3.51.997 5.002 1.932.364-.55.565-1.202.565-1.864 0-1.057-.505-2.066-1.35-2.7l-.639-.479c-1.26-.946-2.011-2.448-2.011-4.023 0-.844.247-1.66.714-2.36l.622-.933c.435-.65.664-1.412.664-2.201 0-.792-.222-1.522-.641-2.151l-.351-.525c-.659-.991-1.008-2.141-1.008-3.33v-.486c0-4.963-4.038-9-9-9h-8c-4.962 0-9 4.037-9 9v.486c0 1.188-.349 2.339-1.008 3.328l-.352.527c-.418.629-.64 1.359-.64 2.114 0 .826.229 1.588.664 2.239l.622.932c.467.7.714 1.517.714 2.36 0 1.574-.751 3.077-2.011 4.021l-.639.479c-.845.634-1.35 1.644-1.35 2.7 0 .665.201 1.317.565 1.867zm11.595-22.915c-.558.159-1.04.473-1.408.887.084-.004.163-.025.248-.025 2.414 0 4.434 1.721 4.899 4h2.202c.226-1.108.834-2.068 1.662-2.779l-.667-.167c-1.779-.445-3.381-1.339-4.692-2.558zm13.84 5.862c0-1.654-1.346-3-3-3s-3 1.346-3 3 1.346 3 3 3 3-1.346 3-3zm-18 0c0 1.654 1.346 3 3 3s3-1.346 3-3-1.346-3-3-3-3 1.346-3 3zm2.065 4.906c.447 3.432 3.383 6.094 6.935 6.094s6.488-2.662 6.935-6.094c-.304.057-.615.094-.935.094-2.414 0-4.434-1.721-4.899-4h-2.202c-.465 2.279-2.484 4-4.899 4-.32 0-.631-.037-.935-.094zm2.201 10.036.325 1.301c.112.445.511.757.971.757h6.877c.459 0 .859-.312.97-.758l.325-1.3c-.617-.662-1.063-1.488-1.25-2.426l-.041-.204c-1.062.442-2.224.688-3.443.688s-2.381-.246-3.443-.687l-.041.204c-.187.937-.633 1.763-1.25 2.425zm-10.852 30.058h6.586v-9.586l-3.843 3.842c-.351.351-.742.647-1.157.896v.019c0 .801-.312 1.555-.879 2.121l-.707.708c-.267.268-.414.622-.414 1 0 .377.147.732.414 1zm10.586-15.532c0 .532-.106 1.044-.274 1.532h2.274v-2h-2.045c.016.156.046.309.045.468zm10 .001c0-.159.029-.313.046-.469h-2.046v2h2.274c-.168-.488-.274-1-.274-1.531zm-4 1.531v-2h-2v2zm-8 2.415v11.585h14v-11.586l-.415-.414h-13.17zm16-.829 3.587-3.587-1.216-1.216c-.974-.974-2.676-1.028-3.648-.059-.467.465-.723 1.085-.723 1.744 0 .721.281 1.398.792 1.909zm1-10.465c0-.618-.503-1.121-1.121-1.121-.3 0-.581.116-.793.328l-5.672 5.672h3.172l4.086-4.086c.208-.209.328-.498.328-.793zm-12.414 4.879-5.672-5.672c-.212-.212-.493-.328-.793-.328-.618 0-1.121.503-1.121 1.121 0 .295.12.584.328.793l4.086 4.086zm-8.957.783-1.216 1.216 3.587 3.587 1.209-1.209c.51-.511.791-1.188.791-1.91 0-.658-.257-1.277-.724-1.742-.97-.971-2.673-.916-3.647.058zm25.371 12.389v-.019c-.415-.249-.806-.545-1.157-.896l-3.843-3.843v9.586h6.586c.267-.268.414-.622.414-1s-.147-.732-.415-1l-.707-.707c-.566-.566-.878-1.32-.878-2.121zm7-11.265c0-5.834-4.17-10.804-9.915-11.818l-3.568-.63c-.359-.063-.697-.175-1.024-.308l-.144.577c-.335 1.337-1.532 2.272-2.911 2.272h-6.877c-1.379 0-2.576-.935-2.911-2.271l-.144-.578c-.327.133-.665.245-1.024.308l-3.568.63c-5.744 1.015-9.914 5.984-9.914 11.818v6.143c0 2.178 1.772 3.95 3.95 3.95 1.055 0 2.047-.411 2.792-1.157l3.844-3.843-3.586-3.586-4.293 4.293-1.414-1.414 3.707-3.708v-6.585h2v4.584l1.215-1.215c.678-.679 1.53-1.117 2.454-1.286l-.755-.755c-.581-.581-.914-1.385-.914-2.207 0-1.721 1.4-3.121 3.121-3.121.834 0 1.618.324 2.207.914l6.672 6.672 6.672-6.672c.589-.59 1.373-.914 2.207-.914 1.721 0 3.121 1.4 3.121 3.121 0 .822-.333 1.626-.914 2.207l-.755.755c.924.169 1.776.607 2.455 1.286l1.214 1.215v-4.584h2v6.585l3.707 3.708-1.414 1.414-4.292-4.294-3.587 3.587 3.843 3.843c.746.746 1.738 1.157 2.793 1.157 2.178 0 3.95-1.772 3.95-3.95z" fill="url(#SVGID_1_)"/></svg>