<svg xmlns="http://www.w3.org/2000/svg" xmlns:xlink="http://www.w3.org/1999/xlink" version="1.1" id="Layer_1_1_" x="0px" y="0px" viewBox="0 0 64 64" style="enable-background:new 0 0 64 64;" xml:space="preserve" >
<linearGradient id="SVGID_1_" gradientUnits="userSpaceOnUse" x1="32" y1="63" x2="32" y2="1">
	<stop offset="0" style="stop-color:#9F2FFF"/>
	<stop offset="1" style="stop-color:#0BB1D3"/>
</linearGradient>
<path style="fill:url(#SVGID_1_);" d="M58.875,1c-0.755,0-1.496,0.207-2.141,0.599l-9.112,5.532C43.358,3.181,37.822,1,32,1  C19.318,1,9,11.318,9,24c0,2.066,0.289,4.104,0.829,6.077l-5.783,3.511C2.167,34.729,1,36.802,1,39c0,1.654,1.346,3,3,3s3-1.346,3-3  v-0.411l5.207-2.882C16.338,42.677,23.896,47,32,47c0.937,0,1.859-0.063,2.767-0.172C35.164,46.929,35.572,47,36,47h13  c1.654,0,3,1.346,3,3s-1.346,3-3,3H21c-2.757,0-5,2.243-5,5s2.243,5,5,5h29v-2H21c-1.654,0-3-1.346-3-3s1.346-3,3-3h28  c2.757,0,5-2.243,5-5s-2.243-5-5-5h-7.637C49.39,41.407,55,33.349,55,24c0-3.684-0.893-7.309-2.573-10.558l8.445-4.675  C62.185,8.041,63,6.658,63,5.125C63,2.851,61.149,1,58.875,1z M52,25.155l0.915,0.528c-0.087,1.084-0.259,2.141-0.504,3.173  L49,26.887L52,25.155z M47,28.042l4.836,2.792c-0.331,0.959-0.725,1.888-1.186,2.779L44,29.773L47,28.042z M38,44.116V3.875  c1.031,0.307,2.029,0.706,3,1.167v37.904C40.035,43.405,39.038,43.805,38,44.116z M43,40.743v-3.464l3.402,1.964  c-0.777,0.735-1.603,1.418-2.485,2.029L43,40.743z M43,34.969v-3.464l6.646,3.837c-0.548,0.85-1.156,1.654-1.817,2.414L43,34.969z   M43,7.257l0.913-0.527c0.662,0.458,1.3,0.955,1.912,1.492L43,9.937V7.257z M12,22.845l-0.915-0.528  c0.087-1.084,0.259-2.141,0.504-3.173L15,21.113L12,22.845z M17,19.958l-4.836-2.792c0.331-0.959,0.725-1.888,1.186-2.779L20,18.227  L17,19.958z M21,7.257v3.464l-3.402-1.964c0.777-0.735,1.603-1.418,2.485-2.029L21,7.257z M21,13.031v3.464l-6.646-3.837  c0.548-0.85,1.156-1.654,1.817-2.414L21,13.031z M21,40.743l-0.915,0.528c-0.882-0.607-1.716-1.284-2.499-2.021L21,37.279V40.743z   M11.07,25.692L21,19.959v3.335l-9.393,5.703C11.342,27.913,11.16,26.809,11.07,25.692z M5,37.411V39c0,0.551-0.449,1-1,1  s-1-0.449-1-1c0-1.503,0.798-2.922,2.083-3.702L21,25.634v2.919L5,37.411z M21,30.84v4.13l-4.848,2.799  c-0.814-0.934-1.548-1.948-2.194-3.031L21,30.84z M28,44.608V8h-2v36.107c-1.03-0.309-2.033-0.693-3-1.153V5.055  c0.965-0.46,1.962-0.86,3-1.171V6h2V3.393c0.977-0.189,1.981-0.294,3-0.342V39h2V3.047c1.013,0.048,2.017,0.145,3,0.335v41.225  c-0.368,0.071-0.744,0.12-1.119,0.171C33.78,44.334,33,43.258,33,42v-1h-2v1c0,1.129,0.391,2.161,1.025,2.999  C32.016,44.999,32.008,45,32,45C30.644,45,29.306,44.864,28,44.608z M51.854,17.156l-1.965,1.134l1,1.732l1.531-0.884  c0.247,1.041,0.418,2.101,0.504,3.172L43,28.041v-3.464l6.312-3.644l-1-1.732L43,22.268v-3.607l7.678-4.25  C51.134,15.298,51.53,16.214,51.854,17.156z M59.904,7.017L43,16.375v-4.097l14.771-8.969C58.104,3.107,58.485,3,58.875,3  C60.046,3,61,3.954,61,5.158C61,5.931,60.58,6.643,59.904,7.017z M54,63h-2v-2h2V63z"/>
</svg>